<?xml version="1.0" encoding="UTF-8" standalone="no"?>
<svg width="372px" height="385px" viewBox="0 0 372 385" version="1.1" xmlns="http://www.w3.org/2000/svg" xmlns:xlink="http://www.w3.org/1999/xlink" xmlns:sketch="http://www.bohemiancoding.com/sketch/ns">
    <!-- Generator: Sketch 3.0.4 (8053) - http://www.bohemiancoding.com/sketch -->
    <title>Group</title>
    <desc>Created with Sketch.</desc>
    <defs></defs>
    <g id="Page-1" stroke="none" stroke-width="1" fill="none" fill-rule="evenodd" sketch:type="MSPage">
        <g id="Desktop" sketch:type="MSArtboardGroup" transform="translate(-343.000000, -317.000000)">
            <g id="Group" sketch:type="MSLayerGroup" transform="translate(343.000000, 317.000000)">
                <path d="M248,260.840942 C314.90013,257.559382 368.559382,203.90013 371.840942,137 L371.840942,137 L372,137 L372,0 L235,0 L235,0.159058002 C168.09987,3.44061761 114.440618,57.0998699 111.159058,124 L111,124 L111,261 L248,261 L248,260.840942 Z" id="Oval-15" fill="#1BCD8F" sketch:type="MSShapeGroup"></path>
                <rect id="Rectangle-4" fill="#1BCD8F" sketch:type="MSShapeGroup" x="111" y="101" width="69" height="284" rx="40"></rect>
                <path d="M41.9999812,87.9553538 C19.2906764,86.9394205 1.06056914,68.7093073 0.0446453576,46 L0.0446453576,46 L0,46 L0,0 L46,0 L46,0.0446453576 C68.7093073,1.06056914 86.9394205,19.2906764 87.9553538,41.9999812 L88,42 L88,88 L42,88 L42,87.9553546 Z" id="Oval-12" fill="#2CE7E3" sketch:type="MSShapeGroup"></path>
                <path d="M41.9999812,143.955354 C19.2906764,142.939421 1.06056914,124.709307 0.0446453576,102 L0.0446453576,102 L0,102 L0,56 L46,56 L46,56.0446454 C68.7093073,57.0605691 86.9394205,75.2906764 87.9553538,97.9999812 L88,98 L88,144 L42,144 L42,143.955355 Z" id="Oval-13" fill="#FAFC91" sketch:type="MSShapeGroup"></path>
                <path d="M41.9999812,198.955354 C19.2906764,197.939421 1.06056914,179.709307 0.0446453576,157 L0.0446453576,157 L0,157 L0,111 L46,111 L46,111.044645 C68.7093073,112.060569 86.9394205,130.290676 87.9553538,152.999981 L88,153 L88,199 L42,199 L42,198.955355 Z" id="Oval-14" fill="#A3FFA7" sketch:type="MSShapeGroup"></path>
            </g>
        </g>
    </g>
</svg>